<mxfile host="app.diagrams.net" modified="2021-12-02T13:50:11.633Z" agent="5.0 (Windows NT 10.0; Win64; x64) AppleWebKit/537.36 (KHTML, like Gecko) Chrome/96.0.4664.45 Safari/537.36" etag="EyLJGivVH0AyRE6EllJo" version="15.4.3" type="github">
  <diagram id="vVeJyDxOao0wQ11l-HMC" name="Page-1">
    <mxGraphModel dx="3041" dy="2439" grid="1" gridSize="10" guides="1" tooltips="1" connect="1" arrows="1" fold="1" page="1" pageScale="1" pageWidth="827" pageHeight="1169" math="0" shadow="0">
      <root>
        <mxCell id="0" />
        <mxCell id="1" parent="0" />
        <mxCell id="qP14PZrJVvbcQP-AfmOk-51" value="" style="rounded=0;whiteSpace=wrap;html=1;fillColor=#f5f5f5;strokeColor=#666666;fontColor=#333333;" vertex="1" parent="1">
          <mxGeometry x="-350" y="236" width="1363" height="800" as="geometry" />
        </mxCell>
        <mxCell id="qP14PZrJVvbcQP-AfmOk-13" value="" style="rounded=0;whiteSpace=wrap;html=1;fillColor=#d5e8d4;strokeColor=#82b366;" vertex="1" parent="1">
          <mxGeometry x="-120" y="680" width="880" height="290" as="geometry" />
        </mxCell>
        <mxCell id="qP14PZrJVvbcQP-AfmOk-10" value="" style="rounded=0;whiteSpace=wrap;html=1;fillColor=#ffe6cc;strokeColor=#d79b00;" vertex="1" parent="1">
          <mxGeometry x="400" y="280" width="360" height="360" as="geometry" />
        </mxCell>
        <mxCell id="qP14PZrJVvbcQP-AfmOk-6" value="" style="rounded=0;whiteSpace=wrap;html=1;fillColor=#dae8fc;strokeColor=#6c8ebf;" vertex="1" parent="1">
          <mxGeometry x="-120" y="280" width="440" height="360" as="geometry" />
        </mxCell>
        <mxCell id="qP14PZrJVvbcQP-AfmOk-48" style="edgeStyle=orthogonalEdgeStyle;rounded=0;orthogonalLoop=1;jettySize=auto;html=1;" edge="1" parent="1" source="qP14PZrJVvbcQP-AfmOk-4" target="qP14PZrJVvbcQP-AfmOk-9">
          <mxGeometry relative="1" as="geometry">
            <Array as="points">
              <mxPoint x="180" y="349" />
              <mxPoint x="180" y="156" />
            </Array>
          </mxGeometry>
        </mxCell>
        <mxCell id="qP14PZrJVvbcQP-AfmOk-4" value="" style="sketch=0;points=[[0,0,0],[0.25,0,0],[0.5,0,0],[0.75,0,0],[1,0,0],[0,1,0],[0.25,1,0],[0.5,1,0],[0.75,1,0],[1,1,0],[0,0.25,0],[0,0.5,0],[0,0.75,0],[1,0.25,0],[1,0.5,0],[1,0.75,0]];outlineConnect=0;fontColor=#232F3E;gradientColor=#945DF2;gradientDirection=north;fillColor=#5A30B5;strokeColor=#ffffff;dashed=0;verticalLabelPosition=bottom;verticalAlign=top;align=center;html=1;fontSize=12;fontStyle=0;aspect=fixed;shape=mxgraph.aws4.resourceIcon;resIcon=mxgraph.aws4.elastic_load_balancing;" vertex="1" parent="1">
          <mxGeometry x="61" y="310" width="78" height="78" as="geometry" />
        </mxCell>
        <mxCell id="qP14PZrJVvbcQP-AfmOk-5" value="" style="sketch=0;points=[[0,0,0],[0.25,0,0],[0.5,0,0],[0.75,0,0],[1,0,0],[0,1,0],[0.25,1,0],[0.5,1,0],[0.75,1,0],[1,1,0],[0,0.25,0],[0,0.5,0],[0,0.75,0],[1,0.25,0],[1,0.5,0],[1,0.75,0]];outlineConnect=0;fontColor=#232F3E;gradientColor=#945DF2;gradientDirection=north;fillColor=#5A30B5;strokeColor=#ffffff;dashed=0;verticalLabelPosition=bottom;verticalAlign=top;align=center;html=1;fontSize=12;fontStyle=0;aspect=fixed;shape=mxgraph.aws4.resourceIcon;resIcon=mxgraph.aws4.vpc;" vertex="1" parent="1">
          <mxGeometry x="-120" y="562" width="78" height="78" as="geometry" />
        </mxCell>
        <mxCell id="qP14PZrJVvbcQP-AfmOk-46" style="edgeStyle=orthogonalEdgeStyle;rounded=0;orthogonalLoop=1;jettySize=auto;html=1;entryX=0;entryY=0.5;entryDx=0;entryDy=0;entryPerimeter=0;" edge="1" parent="1" source="qP14PZrJVvbcQP-AfmOk-7" target="qP14PZrJVvbcQP-AfmOk-16">
          <mxGeometry relative="1" as="geometry" />
        </mxCell>
        <mxCell id="qP14PZrJVvbcQP-AfmOk-47" style="edgeStyle=orthogonalEdgeStyle;rounded=0;orthogonalLoop=1;jettySize=auto;html=1;entryX=0;entryY=0.5;entryDx=0;entryDy=0;entryPerimeter=0;" edge="1" parent="1" source="qP14PZrJVvbcQP-AfmOk-7" target="qP14PZrJVvbcQP-AfmOk-4">
          <mxGeometry relative="1" as="geometry">
            <Array as="points">
              <mxPoint x="20" y="523" />
              <mxPoint x="20" y="349" />
            </Array>
          </mxGeometry>
        </mxCell>
        <mxCell id="qP14PZrJVvbcQP-AfmOk-7" value="" style="sketch=0;points=[[0,0,0],[0.25,0,0],[0.5,0,0],[0.75,0,0],[1,0,0],[0,1,0],[0.25,1,0],[0.5,1,0],[0.75,1,0],[1,1,0],[0,0.25,0],[0,0.5,0],[0,0.75,0],[1,0.25,0],[1,0.5,0],[1,0.75,0]];outlineConnect=0;fontColor=#232F3E;gradientColor=#F78E04;gradientDirection=north;fillColor=#D05C17;strokeColor=#ffffff;dashed=0;verticalLabelPosition=bottom;verticalAlign=top;align=center;html=1;fontSize=12;fontStyle=0;aspect=fixed;shape=mxgraph.aws4.resourceIcon;resIcon=mxgraph.aws4.ec2;" vertex="1" parent="1">
          <mxGeometry x="61" y="484" width="78" height="78" as="geometry" />
        </mxCell>
        <mxCell id="qP14PZrJVvbcQP-AfmOk-8" value="" style="sketch=0;outlineConnect=0;fontColor=#232F3E;gradientColor=none;fillColor=#232F3E;strokeColor=none;dashed=0;verticalLabelPosition=bottom;verticalAlign=top;align=center;html=1;fontSize=12;fontStyle=0;aspect=fixed;pointerEvents=1;shape=mxgraph.aws4.internet_alt1;" vertex="1" parent="1">
          <mxGeometry x="61" y="-20" width="78" height="48" as="geometry" />
        </mxCell>
        <mxCell id="qP14PZrJVvbcQP-AfmOk-49" style="edgeStyle=orthogonalEdgeStyle;rounded=0;orthogonalLoop=1;jettySize=auto;html=1;" edge="1" parent="1" source="qP14PZrJVvbcQP-AfmOk-9" target="qP14PZrJVvbcQP-AfmOk-8">
          <mxGeometry relative="1" as="geometry">
            <Array as="points">
              <mxPoint x="20" y="156" />
              <mxPoint x="20" y="4" />
            </Array>
          </mxGeometry>
        </mxCell>
        <mxCell id="qP14PZrJVvbcQP-AfmOk-9" value="" style="sketch=0;outlineConnect=0;fontColor=#232F3E;gradientColor=none;fillColor=#232F3E;strokeColor=none;dashed=0;verticalLabelPosition=bottom;verticalAlign=top;align=center;html=1;fontSize=12;fontStyle=0;aspect=fixed;pointerEvents=1;shape=mxgraph.aws4.ssl_padlock;" vertex="1" parent="1">
          <mxGeometry x="61" y="118" width="78" height="76" as="geometry" />
        </mxCell>
        <mxCell id="qP14PZrJVvbcQP-AfmOk-11" value="" style="sketch=0;points=[[0,0,0],[0.25,0,0],[0.5,0,0],[0.75,0,0],[1,0,0],[0,1,0],[0.25,1,0],[0.5,1,0],[0.75,1,0],[1,1,0],[0,0.25,0],[0,0.5,0],[0,0.75,0],[1,0.25,0],[1,0.5,0],[1,0.75,0]];outlineConnect=0;fontColor=#232F3E;gradientColor=#945DF2;gradientDirection=north;fillColor=#5A30B5;strokeColor=#ffffff;dashed=0;verticalLabelPosition=bottom;verticalAlign=top;align=center;html=1;fontSize=12;fontStyle=0;aspect=fixed;shape=mxgraph.aws4.resourceIcon;resIcon=mxgraph.aws4.serverless;" vertex="1" parent="1">
          <mxGeometry x="400" y="562" width="78" height="78" as="geometry" />
        </mxCell>
        <mxCell id="qP14PZrJVvbcQP-AfmOk-37" style="edgeStyle=orthogonalEdgeStyle;rounded=0;orthogonalLoop=1;jettySize=auto;html=1;entryX=0;entryY=0.5;entryDx=0;entryDy=0;entryPerimeter=0;exitX=0.5;exitY=0;exitDx=0;exitDy=0;exitPerimeter=0;" edge="1" parent="1" source="qP14PZrJVvbcQP-AfmOk-12" target="qP14PZrJVvbcQP-AfmOk-34">
          <mxGeometry relative="1" as="geometry" />
        </mxCell>
        <mxCell id="qP14PZrJVvbcQP-AfmOk-39" style="edgeStyle=orthogonalEdgeStyle;rounded=0;orthogonalLoop=1;jettySize=auto;html=1;" edge="1" parent="1" source="qP14PZrJVvbcQP-AfmOk-12" target="qP14PZrJVvbcQP-AfmOk-18">
          <mxGeometry relative="1" as="geometry">
            <Array as="points">
              <mxPoint x="500" y="445" />
              <mxPoint x="500" y="157" />
            </Array>
          </mxGeometry>
        </mxCell>
        <mxCell id="qP14PZrJVvbcQP-AfmOk-45" style="edgeStyle=orthogonalEdgeStyle;rounded=0;orthogonalLoop=1;jettySize=auto;html=1;entryX=1;entryY=0.25;entryDx=0;entryDy=0;entryPerimeter=0;" edge="1" parent="1" source="qP14PZrJVvbcQP-AfmOk-12" target="qP14PZrJVvbcQP-AfmOk-16">
          <mxGeometry relative="1" as="geometry">
            <Array as="points">
              <mxPoint x="620" y="445" />
              <mxPoint x="620" y="780" />
            </Array>
          </mxGeometry>
        </mxCell>
        <mxCell id="qP14PZrJVvbcQP-AfmOk-12" value="" style="sketch=0;points=[[0,0,0],[0.25,0,0],[0.5,0,0],[0.75,0,0],[1,0,0],[0,1,0],[0.25,1,0],[0.5,1,0],[0.75,1,0],[1,1,0],[0,0.25,0],[0,0.5,0],[0,0.75,0],[1,0.25,0],[1,0.5,0],[1,0.75,0]];outlineConnect=0;fontColor=#232F3E;gradientColor=#F78E04;gradientDirection=north;fillColor=#D05C17;strokeColor=#ffffff;dashed=0;verticalLabelPosition=bottom;verticalAlign=top;align=center;html=1;fontSize=12;fontStyle=0;aspect=fixed;shape=mxgraph.aws4.resourceIcon;resIcon=mxgraph.aws4.lambda;" vertex="1" parent="1">
          <mxGeometry x="528" y="406" width="78" height="78" as="geometry" />
        </mxCell>
        <mxCell id="qP14PZrJVvbcQP-AfmOk-14" value="" style="sketch=0;points=[[0,0,0],[0.25,0,0],[0.5,0,0],[0.75,0,0],[1,0,0],[0,1,0],[0.25,1,0],[0.5,1,0],[0.75,1,0],[1,1,0],[0,0.25,0],[0,0.5,0],[0,0.75,0],[1,0.25,0],[1,0.5,0],[1,0.75,0]];outlineConnect=0;fontColor=#232F3E;gradientColor=#4D72F3;gradientDirection=north;fillColor=#3334B9;strokeColor=#ffffff;dashed=0;verticalLabelPosition=bottom;verticalAlign=top;align=center;html=1;fontSize=12;fontStyle=0;aspect=fixed;shape=mxgraph.aws4.resourceIcon;resIcon=mxgraph.aws4.database;" vertex="1" parent="1">
          <mxGeometry x="-120" y="892" width="78" height="78" as="geometry" />
        </mxCell>
        <mxCell id="qP14PZrJVvbcQP-AfmOk-15" value="" style="sketch=0;outlineConnect=0;fontColor=#232F3E;gradientColor=none;fillColor=#6CAE3E;strokeColor=none;dashed=0;verticalLabelPosition=bottom;verticalAlign=top;align=center;html=1;fontSize=12;fontStyle=0;aspect=fixed;pointerEvents=1;shape=mxgraph.aws4.replication;" vertex="1" parent="1">
          <mxGeometry x="650" y="860" width="76" height="78" as="geometry" />
        </mxCell>
        <mxCell id="qP14PZrJVvbcQP-AfmOk-50" style="edgeStyle=orthogonalEdgeStyle;rounded=0;orthogonalLoop=1;jettySize=auto;html=1;" edge="1" parent="1" source="qP14PZrJVvbcQP-AfmOk-16" target="qP14PZrJVvbcQP-AfmOk-15">
          <mxGeometry relative="1" as="geometry">
            <Array as="points">
              <mxPoint x="340" y="930" />
            </Array>
          </mxGeometry>
        </mxCell>
        <mxCell id="qP14PZrJVvbcQP-AfmOk-16" value="" style="sketch=0;points=[[0,0,0],[0.25,0,0],[0.5,0,0],[0.75,0,0],[1,0,0],[0,1,0],[0.25,1,0],[0.5,1,0],[0.75,1,0],[1,1,0],[0,0.25,0],[0,0.5,0],[0,0.75,0],[1,0.25,0],[1,0.5,0],[1,0.75,0]];outlineConnect=0;fontColor=#232F3E;gradientColor=#4D72F3;gradientDirection=north;fillColor=#3334B9;strokeColor=#ffffff;dashed=0;verticalLabelPosition=bottom;verticalAlign=top;align=center;html=1;fontSize=12;fontStyle=0;aspect=fixed;shape=mxgraph.aws4.resourceIcon;resIcon=mxgraph.aws4.rds;" vertex="1" parent="1">
          <mxGeometry x="281" y="760" width="78" height="78" as="geometry" />
        </mxCell>
        <mxCell id="qP14PZrJVvbcQP-AfmOk-17" value="" style="sketch=0;points=[[0,0,0],[0.25,0,0],[0.5,0,0],[0.75,0,0],[1,0,0],[0,1,0],[0.25,1,0],[0.5,1,0],[0.75,1,0],[1,1,0],[0,0.25,0],[0,0.5,0],[0,0.75,0],[1,0.25,0],[1,0.5,0],[1,0.75,0]];gradientDirection=north;outlineConnect=0;fontColor=#232F3E;gradientColor=#505863;fillColor=#1E262E;strokeColor=#ffffff;dashed=0;verticalLabelPosition=bottom;verticalAlign=top;align=center;html=1;fontSize=12;fontStyle=0;aspect=fixed;shape=mxgraph.aws4.resourceIcon;resIcon=mxgraph.aws4.marketplace;" vertex="1" parent="1">
          <mxGeometry x="529" y="-20" width="78" height="78" as="geometry" />
        </mxCell>
        <mxCell id="qP14PZrJVvbcQP-AfmOk-42" style="edgeStyle=orthogonalEdgeStyle;rounded=0;orthogonalLoop=1;jettySize=auto;html=1;entryX=1;entryY=0.5;entryDx=0;entryDy=0;entryPerimeter=0;" edge="1" parent="1" source="qP14PZrJVvbcQP-AfmOk-18" target="qP14PZrJVvbcQP-AfmOk-17">
          <mxGeometry relative="1" as="geometry" />
        </mxCell>
        <mxCell id="qP14PZrJVvbcQP-AfmOk-18" value="" style="sketch=0;outlineConnect=0;fontColor=#232F3E;gradientColor=none;fillColor=#232F3E;strokeColor=none;dashed=0;verticalLabelPosition=bottom;verticalAlign=top;align=center;html=1;fontSize=12;fontStyle=0;aspect=fixed;pointerEvents=1;shape=mxgraph.aws4.external_toolkit;" vertex="1" parent="1">
          <mxGeometry x="530" y="118" width="68" height="78" as="geometry" />
        </mxCell>
        <mxCell id="qP14PZrJVvbcQP-AfmOk-20" value="Lambda functions" style="text;html=1;strokeColor=none;fillColor=none;align=center;verticalAlign=middle;whiteSpace=wrap;rounded=0;" vertex="1" parent="1">
          <mxGeometry x="538" y="490" width="60" height="30" as="geometry" />
        </mxCell>
        <mxCell id="qP14PZrJVvbcQP-AfmOk-21" value="Application load balancer" style="text;html=1;strokeColor=none;fillColor=none;align=center;verticalAlign=middle;whiteSpace=wrap;rounded=0;" vertex="1" parent="1">
          <mxGeometry x="70" y="400" width="60" height="30" as="geometry" />
        </mxCell>
        <mxCell id="qP14PZrJVvbcQP-AfmOk-23" value="EC2" style="text;html=1;strokeColor=none;fillColor=none;align=center;verticalAlign=middle;whiteSpace=wrap;rounded=0;" vertex="1" parent="1">
          <mxGeometry x="70" y="570" width="60" height="30" as="geometry" />
        </mxCell>
        <mxCell id="qP14PZrJVvbcQP-AfmOk-25" value="RDS" style="text;html=1;strokeColor=none;fillColor=none;align=center;verticalAlign=middle;whiteSpace=wrap;rounded=0;" vertex="1" parent="1">
          <mxGeometry x="290" y="850" width="60" height="30" as="geometry" />
        </mxCell>
        <mxCell id="qP14PZrJVvbcQP-AfmOk-27" value="S3 buckets" style="text;html=1;strokeColor=none;fillColor=none;align=center;verticalAlign=middle;whiteSpace=wrap;rounded=0;" vertex="1" parent="1">
          <mxGeometry x="658" y="938" width="60" height="30" as="geometry" />
        </mxCell>
        <mxCell id="qP14PZrJVvbcQP-AfmOk-28" value="Cloudflare" style="text;html=1;strokeColor=none;fillColor=none;align=center;verticalAlign=middle;whiteSpace=wrap;rounded=0;" vertex="1" parent="1">
          <mxGeometry x="70" y="198" width="60" height="30" as="geometry" />
        </mxCell>
        <mxCell id="qP14PZrJVvbcQP-AfmOk-29" value="Public internet" style="text;html=1;strokeColor=none;fillColor=none;align=center;verticalAlign=middle;whiteSpace=wrap;rounded=0;" vertex="1" parent="1">
          <mxGeometry x="70" y="38" width="60" height="30" as="geometry" />
        </mxCell>
        <mxCell id="qP14PZrJVvbcQP-AfmOk-30" value="API" style="text;html=1;strokeColor=none;fillColor=none;align=center;verticalAlign=middle;whiteSpace=wrap;rounded=0;" vertex="1" parent="1">
          <mxGeometry x="538" y="206" width="60" height="30" as="geometry" />
        </mxCell>
        <mxCell id="qP14PZrJVvbcQP-AfmOk-31" value="Marketplace" style="text;html=1;strokeColor=none;fillColor=none;align=center;verticalAlign=middle;whiteSpace=wrap;rounded=0;" vertex="1" parent="1">
          <mxGeometry x="534" y="58" width="60" height="30" as="geometry" />
        </mxCell>
        <mxCell id="qP14PZrJVvbcQP-AfmOk-44" style="edgeStyle=orthogonalEdgeStyle;rounded=0;orthogonalLoop=1;jettySize=auto;html=1;entryX=1;entryY=0.5;entryDx=0;entryDy=0;entryPerimeter=0;" edge="1" parent="1" source="qP14PZrJVvbcQP-AfmOk-32" target="qP14PZrJVvbcQP-AfmOk-16">
          <mxGeometry relative="1" as="geometry">
            <Array as="points">
              <mxPoint x="740" y="539" />
              <mxPoint x="740" y="799" />
            </Array>
          </mxGeometry>
        </mxCell>
        <mxCell id="qP14PZrJVvbcQP-AfmOk-32" value="" style="sketch=0;points=[[0,0,0],[0.25,0,0],[0.5,0,0],[0.75,0,0],[1,0,0],[0,1,0],[0.25,1,0],[0.5,1,0],[0.75,1,0],[1,1,0],[0,0.25,0],[0,0.5,0],[0,0.75,0],[1,0.25,0],[1,0.5,0],[1,0.75,0]];outlineConnect=0;fontColor=#232F3E;gradientColor=#4AB29A;gradientDirection=north;fillColor=#116D5B;strokeColor=#ffffff;dashed=0;verticalLabelPosition=bottom;verticalAlign=top;align=center;html=1;fontSize=12;fontStyle=0;aspect=fixed;shape=mxgraph.aws4.resourceIcon;resIcon=mxgraph.aws4.forecast;" vertex="1" parent="1">
          <mxGeometry x="640" y="500" width="78" height="78" as="geometry" />
        </mxCell>
        <mxCell id="qP14PZrJVvbcQP-AfmOk-33" value="Forecast" style="text;html=1;strokeColor=none;fillColor=none;align=center;verticalAlign=middle;whiteSpace=wrap;rounded=0;" vertex="1" parent="1">
          <mxGeometry x="658" y="586" width="60" height="30" as="geometry" />
        </mxCell>
        <mxCell id="qP14PZrJVvbcQP-AfmOk-38" style="edgeStyle=orthogonalEdgeStyle;rounded=0;orthogonalLoop=1;jettySize=auto;html=1;entryX=0.5;entryY=0;entryDx=0;entryDy=0;entryPerimeter=0;" edge="1" parent="1" source="qP14PZrJVvbcQP-AfmOk-34" target="qP14PZrJVvbcQP-AfmOk-32">
          <mxGeometry relative="1" as="geometry">
            <Array as="points">
              <mxPoint x="730" y="349" />
              <mxPoint x="730" y="480" />
              <mxPoint x="679" y="480" />
            </Array>
          </mxGeometry>
        </mxCell>
        <mxCell id="qP14PZrJVvbcQP-AfmOk-34" value="" style="sketch=0;points=[[0,0,0],[0.25,0,0],[0.5,0,0],[0.75,0,0],[1,0,0],[0,1,0],[0.25,1,0],[0.5,1,0],[0.75,1,0],[1,1,0],[0,0.25,0],[0,0.5,0],[0,0.75,0],[1,0.25,0],[1,0.5,0],[1,0.75,0]];outlineConnect=0;fontColor=#232F3E;gradientColor=#4AB29A;gradientDirection=north;fillColor=#116D5B;strokeColor=#ffffff;dashed=0;verticalLabelPosition=bottom;verticalAlign=top;align=center;html=1;fontSize=12;fontStyle=0;aspect=fixed;shape=mxgraph.aws4.resourceIcon;resIcon=mxgraph.aws4.sagemaker;" vertex="1" parent="1">
          <mxGeometry x="640" y="310" width="78" height="78" as="geometry" />
        </mxCell>
        <mxCell id="qP14PZrJVvbcQP-AfmOk-35" value="SageMaker" style="text;html=1;strokeColor=none;fillColor=none;align=center;verticalAlign=middle;whiteSpace=wrap;rounded=0;" vertex="1" parent="1">
          <mxGeometry x="649" y="388" width="60" height="30" as="geometry" />
        </mxCell>
        <mxCell id="qP14PZrJVvbcQP-AfmOk-53" value="" style="sketch=0;outlineConnect=0;fontColor=#232F3E;gradientColor=none;fillColor=#A166FF;strokeColor=none;dashed=0;verticalLabelPosition=bottom;verticalAlign=top;align=center;html=1;fontSize=12;fontStyle=0;aspect=fixed;pointerEvents=1;shape=mxgraph.aws4.data_lake_resource_icon;" vertex="1" parent="1">
          <mxGeometry x="-120" y="682" width="78" height="78" as="geometry" />
        </mxCell>
        <mxCell id="qP14PZrJVvbcQP-AfmOk-54" value="" style="sketch=0;points=[[0,0,0],[0.25,0,0],[0.5,0,0],[0.75,0,0],[1,0,0],[0,1,0],[0.25,1,0],[0.5,1,0],[0.75,1,0],[1,1,0],[0,0.25,0],[0,0.5,0],[0,0.75,0],[1,0.25,0],[1,0.5,0],[1,0.75,0]];outlineConnect=0;fontColor=#232F3E;gradientColor=#F78E04;gradientDirection=north;fillColor=#D05C17;strokeColor=#ffffff;dashed=0;verticalLabelPosition=bottom;verticalAlign=top;align=center;html=1;fontSize=12;fontStyle=0;aspect=fixed;shape=mxgraph.aws4.resourceIcon;resIcon=mxgraph.aws4.auto_scaling2;" vertex="1" parent="1">
          <mxGeometry x="-120" y="280" width="78" height="78" as="geometry" />
        </mxCell>
        <mxCell id="qP14PZrJVvbcQP-AfmOk-55" value="" style="sketch=0;points=[[0,0,0],[0.25,0,0],[0.5,0,0],[0.75,0,0],[1,0,0],[0,1,0],[0.25,1,0],[0.5,1,0],[0.75,1,0],[1,1,0],[0,0.25,0],[0,0.5,0],[0,0.75,0],[1,0.25,0],[1,0.5,0],[1,0.75,0]];outlineConnect=0;fontColor=#232F3E;gradientColor=#F78E04;gradientDirection=north;fillColor=#D05C17;strokeColor=#ffffff;dashed=0;verticalLabelPosition=bottom;verticalAlign=top;align=center;html=1;fontSize=12;fontStyle=0;aspect=fixed;shape=mxgraph.aws4.resourceIcon;resIcon=mxgraph.aws4.serverless_application_repository;" vertex="1" parent="1">
          <mxGeometry x="400" y="280" width="78" height="78" as="geometry" />
        </mxCell>
        <mxCell id="qP14PZrJVvbcQP-AfmOk-56" value="" style="shape=image;verticalLabelPosition=bottom;labelBackgroundColor=#ffffff;verticalAlign=top;aspect=fixed;imageAspect=0;image=data:image/png,iVBORw0KGgoAAAANSUhEUgAAAH4AAABQCAYAAADfhcHOAAAAAXNSR0IArs4c6QAAAARnQU1BAACxjwv8YQUAAAAJcEhZcwAADsMAAA7DAcdvqGQAAAagSURBVHhe7ZxNaB1VFMcnxq9iXqulYkyqUu0iu1ZI2o2opCDWRS26cKFCBRfaYsVVK5UihaLFlfWDLgQD2oWIpe3CimDRZU3AupAmUCmoeY1QquTVqvVz/nfmn3fezZ1JsDZzJ+f8YJj77rsz777zPx/3zgvpSvknMdRxVX42lNG1bGDYIl4hFvFK6bprzb0W8QqxiFeKCa8UE14pJrxSTHilmPBKMeGVYsIrxYRXigmvFBNeKSa8Ukx4pZjwSjHhlWLCK8WEV8btvcvdYcIrxYRXStR/c7eyrzd5ZNODSX96Xtl3qztPNqeSH5pn3Xn/gZF8ZBtcs37wbtf+6Ogxdw4hx50Y+yq955Rr+8hxwL9n2Ry/HPu6dA5VgDQPohR+/eDaZN+eF51Ry4BYh1LDSgf4/OMPZq7bf+DdoHOA0ye/yFvZfe5/6LH8VSf79uxMHt200bUh4o7dr7o22P7MlvR4Kn8VpuzeVUDho0z1MKYvOgzoR2UWbRs7xiLaCN4LQSFJmYPJsYhgcvCd12eJjvmdGDuZv8oou3eVRCk80iSMiIh9/Onnk9Vr73NRwwP9BIZ9Lo084r8Xor/vlrzVBlnGx3cQlASAfjkeWYBzlPNFv5xPTEQpPAyWCTwyK4IyhxjpMKiswTLiQUhQjpcZJDROOgjSPMevG1zjzgD9oTqOsegvKjVVU9tV/aGjn+StLLIZ3TC4dJaw8FkfIphjpfMQ2SfTPBZxJHRdHVg02zmspol0Cr/OF9VseT2RTsM0D3ynwyKvqKzESvTCM5pZVymGTNNApngpEq8PgXEsGRgjhZYOgqwgPw/XyddY5L2fLvawA5D3iJlohYcQWDlje4YDRsVrHNiKoa8IP93LaGZ9ppjSYaRoso5LRwK47ol0ESfFp3NyzrE7QZTCw4AwXpnhiqKYSLHwgIW0F3Zn83PbSWS9lm2Z2gnFR8aQDgDoBHgWgTIQI9EJD7ERLQRG5XaJB7dNZUixKCLuTYeR9Z3IzCAdyxeWoB+rdswn24V0OgHugTIQY+RHJ7yMThgRBvW3S+iXqTyEHAMBMtHbq3GZEegkHCfre2irFoJOgCwAR5UOMNfTvSqIMOJlii02uozIIvzaLOu2FEaOg/ByXCjNl4H7wlnk3EM7hqqJdnE3FzIzgJBxZVbIUm7mVKEMQkfAGOl8c2WWIiabP+at2Q4YA9EJP59n7aEfR0J1VN4LjsEsEarvHCvHFaV5lAJZDnxwve+YsRHdr3PZarhzcYeIoTD8UYYRSpHwGusBH2yvfKfAOF5P/M8FWECGIh47Ds4B8+LPxCDLGO3PK5pXVUT9s+xcP3dCDIgCA0NYUGRgOQYUjYOQ/rMB7CBCwEHKIp7gs3bsfuU/l4srAYXvXt57x8uuFREwFGrk0kZPR0SfmjjtFk1YNQNGGcY/+8JLru3DMbz+jXTlzT7JdOuCO3Pc3tfeDI4D4+n7pya+Ta9ppXNsuHlKcI+Rgx+6ORXdoyqW9Sxx5+j/65VM6zFTl3lG/YcYkjoYE9RlnqS22znj8jDhrzD9jT/dERvR1/g6AYG3Dv2UDPX/FhR7tLkk2fXZimSydXXes/BEVeNhpE+f/N4ZrY5g/iObp9x32DxwoTDCh/p+dU4RA9FEPETfNvSzi4bD4z3J26M35e/ED4SmoKOT17sz6Wv8kezdcG7GGd4avbHS7xbdPh5p8Mh4w0XMhlUX3blx3d9Js3VN0roU91IE8xs/d6070JZHNv9u953AkYmGG1cV3MdH9QAHhjp+5oZkOj3DUOvSKBq+82IysOJS0vo9M2LsIHPBaXfec959F3yn4VW/uO8Cth+b/afdC0n0D3CY+iUoA0ilKAXIELGANP7wQKtjvpjrA+/d5tqo/6jvsq8qon5WT2BQ1EcYzYdOAAeAIywkFBqEnNNfo3yz9Yw7V13fQS2EJzA0U2gRMDhKweR0t3MGni8XfDYWaFy8+UJLQsLCaRHxMUQ7qJXwZD4OIIGxAR2C0EkIhCX4jP6lf7k+tOdDWSSzZG053BtFeaql8ASC+DV1oQmldB/ME3v7XcdvXvByVESthScwLFIw0imiNLQW+D+h2Nh2MpvMBeYU00J0UQjvIx1hvuWgDAoNuJCsO4tSeAnrs6vVaTaYaef97AOo/4xguUBcjCx64Y0wFN5+llWKCa8UE14Z302dd4cJrxQTXikmvFJMeKWY8Eox4ZViwivFhFeKCa8UE14pJrxSTHilmPBKMeGVYsIrxYRXigmvkiT5F8WqiRd++e1yAAAAAElFTkSuQmCC;" vertex="1" parent="1">
          <mxGeometry x="-350" y="956" width="126" height="80" as="geometry" />
        </mxCell>
      </root>
    </mxGraphModel>
  </diagram>
</mxfile>
